sfk_cyclingleg_states
version=1
nRows=5
nColumns=53
inDegrees=yes

# SIMM Motion File Header:
name sfk_cyclingleg_states
datacolumns 53
datarows 5
otherdata 1
range 0.41284319 0.41369444
endheader
time	/jointset/bb/crank_angle/value	/jointset/bb/crank_angle/speed	/jointset/spindle/pedal_angle_r/value	/jointset/spindle/pedal_angle_r/speed	/jointset/ground_pelvis/pelvis_tilt/value	/jointset/ground_pelvis/pelvis_tilt/speed	/jointset/ground_pelvis/pelvis_list/value	/jointset/ground_pelvis/pelvis_list/speed	/jointset/ground_pelvis/pelvis_rotation/value	/jointset/ground_pelvis/pelvis_rotation/speed	/jointset/ground_pelvis/pelvis_tx/value	/jointset/ground_pelvis/pelvis_tx/speed	/jointset/ground_pelvis/pelvis_ty/value	/jointset/ground_pelvis/pelvis_ty/speed	/jointset/ground_pelvis/pelvis_tz/value	/jointset/ground_pelvis/pelvis_tz/speed	/jointset/hip_r/hip_angle_r/value	/jointset/hip_r/hip_angle_r/speed	/jointset/hip_r/hip_adduction_r/value	/jointset/hip_r/hip_adduction_r/speed	/jointset/hip_r/hip_rotation_r/value	/jointset/hip_r/hip_rotation_r/speed	/jointset/knee_r/knee_angle_r/value	/jointset/knee_r/knee_angle_r/speed	/jointset/knee_r/tib_tx_r/value	/jointset/knee_r/tib_tx_r/speed	/jointset/knee_r/tib_ty_r/value	/jointset/knee_r/tib_ty_r/speed	/jointset/tib_pat_r/pat_angle_r/value	/jointset/tib_pat_r/pat_angle_r/speed	/jointset/tib_pat_r/pat_tx_r/value	/jointset/tib_pat_r/pat_tx_r/speed	/jointset/tib_pat_r/pat_ty_r/value	/jointset/tib_pat_r/pat_ty_r/speed	/jointset/ankle_r/ankle_angle_r/value	/jointset/ankle_r/ankle_angle_r/speed	/jointset/subtalar_r/subtalar_angle_r/value	/jointset/subtalar_r/subtalar_angle_r/speed	/jointset/mtp_r/mtp_angle_r/value	/jointset/mtp_r/mtp_angle_r/speed	/forceset/bifemlh_r/activation	/forceset/bifemlh_r/fiber_length	/forceset/bifemsh_r/activation	/forceset/bifemsh_r/fiber_length	/forceset/glut_max2_r/activation	/forceset/glut_max2_r/fiber_length	/forceset/vas_int_r/activation	/forceset/vas_int_r/fiber_length	/forceset/med_gas_r/activation	/forceset/med_gas_r/fiber_length	/forceset/tib_ant_r/activation	/forceset/tib_ant_r/fiber_length
      0.41284319	   -208.35684093	   -480.13863232	    203.48247463	    261.15110532	      0.00000000	      0.00000000	     -0.00000000	     -0.00000000	     -0.00000000	     -0.00000000	      0.00000000	      0.00000000	      0.00000000	     -0.00000000	      0.00000000	      0.00000000	     35.41572272	     78.12419689	      4.38488762	     -0.05050129	      0.60561637	    -22.55584955	    -61.77247652	   -280.87833241	      0.00492100	      0.01553651	     -0.47650894	     -0.08714294	     17.43024582	      4.81651634	      0.04228555	     -0.08426028	     -0.02285941	      0.01017158	     21.90573075	    -15.67381943	     -0.00000000	     -0.00000000	     -0.00000000	     -0.00000000	     -0.02771144	      0.11070459	     -0.02771144	      0.16539020	     -0.02771144	      0.12648846	     -0.02771144	      0.13042294	     -0.02771144	      0.14528178	     -0.02771144	      0.11663070
      0.41300377	   -208.43394550	   -480.13863232	    203.52441891	    261.23220311	      0.00000000	      0.00000000	     -0.00000000	     -0.00000000	     -0.00000000	     -0.00000000	      0.00000000	      0.00000000	      0.00000000	     -0.00000000	      0.00000000	      0.00000000	     35.42827645	     78.22262065	      4.38487929	     -0.05324230	      0.60199420	    -22.55542743	    -61.81758973	   -280.97140344	      0.00492349	      0.01545713	     -0.47652294	     -0.08720295	     17.43101761	      4.79554235	      0.04227202	     -0.08431477	     -0.02285778	      0.01016931	     21.90321992	    -15.59658559	     -0.00000000	     -0.00000000	     -0.00000000	     -0.00000000	     -0.02773212	      0.11069272	     -0.02773212	      0.16536516	     -0.02773212	      0.12649814	     -0.02773212	      0.13045522	     -0.02773212	      0.14527410	     -0.02773212	      0.11663302
      0.41321323	   -208.53451464	   -480.13863232	    203.57914735	    261.33849129	      0.00000000	      0.00000000	     -0.00000000	     -0.00000000	     -0.00000000	     -0.00000000	      0.00000000	      0.00000000	      0.00000000	     -0.00000000	      0.00000000	      0.00000000	     35.44467427	     78.35075764	      4.38486777	     -0.05682153	      0.59726983	    -22.55485240	    -61.87645424	   -281.09207526	      0.00492672	      0.01535343	     -0.47654121	     -0.08728098	     17.43201922	      4.76822411	      0.04225435	     -0.08438571	     -0.02285565	      0.01016613	     21.89996363	    -15.49582143	     -0.00000000	     -0.00000000	     -0.00000000	     -0.00000000	     -0.02775909	      0.11067726	     -0.02775909	      0.16533250	     -0.02775909	      0.12651077	     -0.02775909	      0.13049732	     -0.02775909	      0.14525514	     -0.02775909	      0.11663602
      0.41365069	   -208.74455646	   -480.13863232	    203.69352156	    261.56233250	      0.00000000	      0.00000000	     -0.00000000	     -0.00000000	     -0.00000000	     -0.00000000	      0.00000000	      0.00000000	      0.00000000	     -0.00000000	      0.00000000	      0.00000000	     35.47900804	     78.61751034	      4.38484127	     -0.06431156	      0.58740325	    -22.55356362	    -61.99947568	   -281.34147707	      0.00493339	      0.01513625	     -0.47657943	     -0.08744303	     17.43409267	      4.71131258	      0.04221740	     -0.08453343	     -0.02285120	      0.01015874	     21.89323086	    -15.28527944	     -0.00000000	     -0.00000000	     -0.00000000	     -0.00000000	     -0.02781541	      0.11064509	     -0.02781541	      0.16526428	     -0.02781541	      0.12653724	     -0.02781541	      0.13058529	     -0.02781541	      0.14513942	     -0.02781541	      0.11664225
      0.41369444	   -208.76556064	   -480.13863232	    203.70496438	    261.58485401	      0.00000000	      0.00000000	     -0.00000000	     -0.00000000	     -0.00000000	     -0.00000000	      0.00000000	      0.00000000	      0.00000000	     -0.00000000	      0.00000000	      0.00000000	     35.48244783	     78.64412173	      4.38483844	     -0.06506164	      0.58641662	    -22.55342830	    -62.01178381	   -281.36622285	      0.00493405	      0.01511449	     -0.47658325	     -0.08745917	     17.43429865	      4.70563226	      0.04221370	     -0.08454816	     -0.02285076	      0.01015795	     21.89256265	    -15.26421856	     -0.00000000	     -0.00000000	     -0.00000000	     -0.00000000	     -0.02782104	      0.11064189	     -0.02782104	      0.16525746	     -0.02782104	      0.12653989	     -0.02782104	      0.13059406	     -0.02782104	      0.14517474	     -0.02782104	      0.11664287
